<svg xmlns="http://www.w3.org/2000/svg" version="1.1" xmlns:xlink="http://www.w3.org/1999/xlink" xmlns:svgjs="http://svgjs.dev/svgjs" width="1000" height="625" viewBox="0 0 1000 625"><g transform="matrix(1,0,0,1,0,0)"><svg viewBox="0 0 512 320" data-background-color="#ffffff" preserveAspectRatio="xMidYMid meet" height="625" width="1000" xmlns="http://www.w3.org/2000/svg" xmlns:xlink="http://www.w3.org/1999/xlink"><g id="tight-bounds" transform="matrix(1,0,0,1,0,0)"><svg viewBox="0 0 512 320" height="320" width="512"><g><svg></svg></g><g><svg viewBox="0 0 512 320" height="320" width="512"><g><path xmlns="http://www.w3.org/2000/svg" d="M96 160c0-88.366 71.634-160 160-160 88.366 0 160 71.634 160 160 0 88.366-71.634 160-160 160-88.366 0-160-71.634-160-160zM256 308.116c81.802 0 148.116-66.314 148.116-148.116 0-81.802-66.314-148.116-148.116-148.116-81.802 0-148.116 66.314-148.116 148.116 0 81.802 66.314 148.116 148.116 148.116z" fill="#010c80" fill-rule="nonzero" stroke="none" stroke-width="1" stroke-linecap="butt" stroke-linejoin="miter" stroke-miterlimit="10" stroke-dasharray="" stroke-dashoffset="0" font-family="none" font-weight="none" font-size="none" text-anchor="none" style="mix-blend-mode: normal" data-fill-palette-color="tertiary"></path></g><g transform="matrix(1,0,0,1,128,127.05407354001443)"><svg viewBox="0 0 256 65.89185291997116" height="65.89185291997116" width="256"><g><svg viewBox="0 0 256 65.89185291997116" height="65.89185291997116" width="256"><g><svg viewBox="0 0 256 65.89185291997116" height="65.89185291997116" width="256"><g><svg viewBox="0 0 256 65.89185291997116" height="65.89185291997116" width="256"><g><svg viewBox="0 0 256 65.89185291997116" height="65.89185291997116" width="256"><g transform="matrix(1,0,0,1,0,0)"><svg width="256" viewBox="4.25 -35.04999923706055 138.69000244140625 35.70000076293945" height="65.89185291997116" data-palette-color="#010c80"><path d="M17.95-18.2Q25.45-16.9 25.45-9.7L25.45-9.7Q25.45-4.8 22.15-2.4 18.85 0 13.05 0L13.05 0 4.25 0 4.25-34.4 11.7-34.4Q17.65-34.4 20.85-32.2 24.05-30 24.05-25.75L24.05-25.75Q24.05-22.7 22.38-20.78 20.7-18.85 17.95-18.2L17.95-18.2ZM12.15-30.85L8.9-30.85 8.9-19.75 13.2-19.75Q16.1-19.75 17.73-21.23 19.35-22.7 19.35-25.35L19.35-25.35Q19.35-28.25 17.57-29.55 15.8-30.85 12.15-30.85L12.15-30.85ZM13.1-3.65Q16.75-3.65 18.7-5.08 20.65-6.5 20.65-9.8L20.65-9.8Q20.65-16.3 13.6-16.3L13.6-16.3 8.9-16.3 8.9-3.65 13.1-3.65ZM49.85-13.95Q49.85-12.9 49.75-11.6L49.75-11.6 34.45-11.6Q34.65-7 36.3-4.98 37.95-2.95 40.8-2.95L40.8-2.95Q42.6-2.95 44.02-3.5 45.45-4.05 47-5.3L47-5.3 49-2.65Q45.3 0.65 40.6 0.65L40.6 0.65Q35.45 0.65 32.62-2.93 29.8-6.5 29.8-12.95L29.8-12.95Q29.8-19.4 32.5-23.18 35.2-26.95 40-26.95L40-26.95Q44.75-26.95 47.3-23.58 49.85-20.2 49.85-13.95L49.85-13.95ZM45.5-14.75L45.5-15.3Q45.5-23.55 40.05-23.55L40.05-23.55Q37.55-23.55 36.1-21.48 34.65-19.4 34.45-14.75L34.45-14.75 45.5-14.75ZM64.45-35.05Q67.5-35.05 69.77-34.05 72.05-33.05 74.05-31.05L74.05-31.05 71.7-28.4Q70-29.9 68.32-30.63 66.65-31.35 64.7-31.35L64.7-31.35Q62.2-31.35 60.67-29.98 59.15-28.6 59.15-26.35L59.15-26.35Q59.15-24.85 59.75-23.78 60.34-22.7 61.8-21.83 63.25-20.95 65.9-20.05L65.9-20.05Q68.95-18.95 70.9-17.7 72.84-16.45 73.9-14.5 74.95-12.55 74.95-9.6L74.95-9.6Q74.95-6.65 73.59-4.33 72.25-2 69.72-0.68 67.2 0.65 63.8 0.65L63.8 0.65Q57.55 0.65 53.15-3.85L53.15-3.85 55.59-6.5Q57.45-4.85 59.37-3.98 61.3-3.1 63.65-3.1L63.65-3.1Q66.59-3.1 68.37-4.78 70.15-6.45 70.15-9.4L70.15-9.4Q70.15-11.95 68.72-13.45 67.3-14.95 63.5-16.25L63.5-16.25Q58.65-17.95 56.52-20.2 54.4-22.45 54.4-26.05L54.4-26.05Q54.4-28.6 55.67-30.68 56.95-32.75 59.25-33.9 61.55-35.05 64.45-35.05L64.45-35.05ZM98.94-26.3L98.94 0 95.04 0 94.79-3.95Q92.04 0.65 87.44 0.65L87.44 0.65Q84.29 0.65 82.49-1.4 80.69-3.45 80.69-6.95L80.69-6.95 80.69-26.3 85.19-26.3 85.19-7.35Q85.19-5.05 86.07-3.98 86.94-2.9 88.69-2.9L88.69-2.9Q92.04-2.9 94.44-7.3L94.44-7.3 94.44-26.3 98.94-26.3ZM117.84-26.9Q119.14-26.9 120.09-26.6L120.09-26.6 119.34-22.25Q118.39-22.55 117.29-22.55L117.29-22.55Q115.09-22.55 113.72-20.8 112.34-19.05 111.54-15.45L111.54-15.45 111.54 0 107.04 0 107.04-26.3 110.94-26.3 111.29-21.1Q113.24-26.9 117.84-26.9L117.84-26.9ZM142.94-13.95Q142.94-12.9 142.84-11.6L142.84-11.6 127.54-11.6Q127.74-7 129.39-4.98 131.04-2.95 133.89-2.95L133.89-2.95Q135.69-2.95 137.11-3.5 138.54-4.05 140.09-5.3L140.09-5.3 142.09-2.65Q138.39 0.65 133.69 0.65L133.69 0.65Q128.54 0.65 125.71-2.93 122.89-6.5 122.89-12.95L122.89-12.95Q122.89-19.4 125.59-23.18 128.29-26.95 133.09-26.95L133.09-26.95Q137.84-26.95 140.39-23.58 142.94-20.2 142.94-13.95L142.94-13.95ZM138.59-14.75L138.59-15.3Q138.59-23.55 133.14-23.55L133.14-23.55Q130.64-23.55 129.19-21.48 127.74-19.4 127.54-14.75L127.54-14.75 138.59-14.75Z" opacity="1" transform="matrix(1,0,0,1,0,0)" fill="#010c80" class="undefined-text-0" data-fill-palette-color="primary" id="text-0"></path></svg></g></svg></g></svg></g></svg></g><g></g></svg></g></svg></g></svg></g><defs></defs></svg><rect width="512" height="320" fill="none" stroke="none" visibility="hidden"></rect></g></svg></g></svg>